<mxfile host="app.diagrams.net" agent="Mozilla/5.0 (Windows NT 10.0; Win64; x64) AppleWebKit/537.36 (KHTML, like Gecko) Chrome/133.0.0.0 Safari/537.36" version="26.1.0">
  <diagram name="Page-1" id="k6LMEh1D0qDT1HhZ9cNr">
    <mxGraphModel dx="1034" dy="420" grid="1" gridSize="10" guides="1" tooltips="1" connect="1" arrows="1" fold="1" page="1" pageScale="1" pageWidth="850" pageHeight="1100" math="0" shadow="0">
      <root>
        <mxCell id="0" />
        <mxCell id="1" parent="0" />
        <mxCell id="0gMe88-RUzZ61mWNXkSE-29" value="" style="rounded=0;whiteSpace=wrap;html=1;" parent="1" vertex="1">
          <mxGeometry x="26" y="30" width="400" height="240" as="geometry" />
        </mxCell>
        <mxCell id="0gMe88-RUzZ61mWNXkSE-7" value="" style="edgeStyle=orthogonalEdgeStyle;rounded=0;orthogonalLoop=1;jettySize=auto;html=1;" parent="1" source="0gMe88-RUzZ61mWNXkSE-3" edge="1">
          <mxGeometry relative="1" as="geometry">
            <mxPoint x="147" y="100" as="targetPoint" />
          </mxGeometry>
        </mxCell>
        <mxCell id="0gMe88-RUzZ61mWNXkSE-3" value="" style="sketch=0;outlineConnect=0;fontColor=#232F3E;gradientColor=none;fillColor=#232F3D;strokeColor=none;dashed=0;verticalLabelPosition=bottom;verticalAlign=top;align=center;html=1;fontSize=12;fontStyle=0;aspect=fixed;pointerEvents=1;shape=mxgraph.aws4.document;" parent="1" vertex="1">
          <mxGeometry x="50" y="80" width="29.23" height="40" as="geometry" />
        </mxCell>
        <mxCell id="0gMe88-RUzZ61mWNXkSE-4" value="Annual Report" style="text;html=1;align=center;verticalAlign=middle;whiteSpace=wrap;rounded=0;" parent="1" vertex="1">
          <mxGeometry x="34.620000000000005" y="124" width="60" height="30" as="geometry" />
        </mxCell>
        <mxCell id="0gMe88-RUzZ61mWNXkSE-9" value="" style="endArrow=classic;html=1;rounded=0;entryX=0;entryY=0.5;entryDx=0;entryDy=0;entryPerimeter=0;" parent="1" source="0gMe88-RUzZ61mWNXkSE-15" target="0gMe88-RUzZ61mWNXkSE-2" edge="1">
          <mxGeometry width="50" height="50" relative="1" as="geometry">
            <mxPoint x="179" y="119" as="sourcePoint" />
            <mxPoint x="239" y="119" as="targetPoint" />
            <Array as="points" />
          </mxGeometry>
        </mxCell>
        <mxCell id="0gMe88-RUzZ61mWNXkSE-2" value="" style="outlineConnect=0;dashed=0;verticalLabelPosition=bottom;verticalAlign=top;align=center;html=1;shape=mxgraph.aws3.lambda_function;fillColor=#F58534;gradientColor=none;" parent="1" vertex="1">
          <mxGeometry x="239" y="80" width="40" height="40" as="geometry" />
        </mxCell>
        <mxCell id="0gMe88-RUzZ61mWNXkSE-10" value="Upload" style="text;html=1;align=center;verticalAlign=middle;whiteSpace=wrap;rounded=0;" parent="1" vertex="1">
          <mxGeometry x="79.23" y="70" width="60" height="30" as="geometry" />
        </mxCell>
        <mxCell id="0gMe88-RUzZ61mWNXkSE-13" value="Event Trigger" style="text;html=1;align=center;verticalAlign=middle;whiteSpace=wrap;rounded=0;" parent="1" vertex="1">
          <mxGeometry x="177" y="57" width="60" height="30" as="geometry" />
        </mxCell>
        <mxCell id="0gMe88-RUzZ61mWNXkSE-14" value="Extract Metadata" style="text;html=1;align=center;verticalAlign=middle;whiteSpace=wrap;rounded=0;" parent="1" vertex="1">
          <mxGeometry x="229" y="124" width="60" height="30" as="geometry" />
        </mxCell>
        <mxCell id="0gMe88-RUzZ61mWNXkSE-15" value="" style="sketch=0;pointerEvents=1;shadow=0;dashed=0;html=1;strokeColor=none;fillColor=#DF8C42;labelPosition=center;verticalLabelPosition=bottom;verticalAlign=top;align=center;outlineConnect=0;shape=mxgraph.veeam2.aws_s3;" parent="1" vertex="1">
          <mxGeometry x="143" y="83" width="34" height="34" as="geometry" />
        </mxCell>
        <mxCell id="0gMe88-RUzZ61mWNXkSE-17" value="" style="outlineConnect=0;dashed=0;verticalLabelPosition=bottom;verticalAlign=top;align=center;html=1;shape=mxgraph.aws3.lambda_function;fillColor=#F58534;gradientColor=none;" parent="1" vertex="1">
          <mxGeometry x="237" y="170" width="40" height="40" as="geometry" />
        </mxCell>
        <mxCell id="0gMe88-RUzZ61mWNXkSE-18" value="Extract Nuggets" style="text;html=1;align=center;verticalAlign=middle;whiteSpace=wrap;rounded=0;" parent="1" vertex="1">
          <mxGeometry x="227" y="214" width="60" height="30" as="geometry" />
        </mxCell>
        <mxCell id="0gMe88-RUzZ61mWNXkSE-20" value="" style="edgeStyle=elbowEdgeStyle;elbow=horizontal;endArrow=classic;html=1;curved=0;rounded=0;endSize=8;startSize=8;entryX=0;entryY=0.5;entryDx=0;entryDy=0;entryPerimeter=0;" parent="1" source="0gMe88-RUzZ61mWNXkSE-15" target="0gMe88-RUzZ61mWNXkSE-17" edge="1">
          <mxGeometry width="50" height="50" relative="1" as="geometry">
            <mxPoint x="150" y="190" as="sourcePoint" />
            <mxPoint x="200" y="140" as="targetPoint" />
          </mxGeometry>
        </mxCell>
        <mxCell id="0gMe88-RUzZ61mWNXkSE-21" value="Metadata DB" style="sketch=0;outlineConnect=0;fontColor=#232F3E;gradientColor=none;strokeColor=#ffffff;fillColor=#232F3E;dashed=0;verticalLabelPosition=middle;verticalAlign=bottom;align=center;html=1;whiteSpace=wrap;fontSize=10;fontStyle=1;spacing=3;shape=mxgraph.aws4.productIcon;prIcon=mxgraph.aws4.dynamodb;" parent="1" vertex="1">
          <mxGeometry x="338" y="81" width="50" height="82" as="geometry" />
        </mxCell>
        <mxCell id="0gMe88-RUzZ61mWNXkSE-23" value="" style="edgeStyle=elbowEdgeStyle;elbow=horizontal;endArrow=classic;html=1;curved=0;rounded=0;endSize=8;startSize=8;exitX=1;exitY=0.5;exitDx=0;exitDy=0;exitPerimeter=0;" parent="1" source="0gMe88-RUzZ61mWNXkSE-2" target="0gMe88-RUzZ61mWNXkSE-21" edge="1">
          <mxGeometry width="50" height="50" relative="1" as="geometry">
            <mxPoint x="290" y="100" as="sourcePoint" />
            <mxPoint x="450" y="200" as="targetPoint" />
          </mxGeometry>
        </mxCell>
        <mxCell id="0gMe88-RUzZ61mWNXkSE-24" value="" style="sketch=0;points=[[0,0,0],[0.25,0,0],[0.5,0,0],[0.75,0,0],[1,0,0],[0,1,0],[0.25,1,0],[0.5,1,0],[0.75,1,0],[1,1,0],[0,0.25,0],[0,0.5,0],[0,0.75,0],[1,0.25,0],[1,0.5,0],[1,0.75,0]];outlineConnect=0;fontColor=#232F3E;fillColor=#C925D1;strokeColor=#ffffff;dashed=0;verticalLabelPosition=bottom;verticalAlign=top;align=center;html=1;fontSize=12;fontStyle=0;aspect=fixed;shape=mxgraph.aws4.resourceIcon;resIcon=mxgraph.aws4.documentdb_with_mongodb_compatibility;" parent="1" vertex="1">
          <mxGeometry x="342" y="173" width="35" height="35" as="geometry" />
        </mxCell>
        <mxCell id="0gMe88-RUzZ61mWNXkSE-25" value="Client&lt;div&gt;Insights DB&lt;/div&gt;" style="text;html=1;align=center;verticalAlign=middle;whiteSpace=wrap;rounded=0;" parent="1" vertex="1">
          <mxGeometry x="326.5" y="213" width="72.5" height="30" as="geometry" />
        </mxCell>
        <mxCell id="0gMe88-RUzZ61mWNXkSE-26" value="" style="endArrow=classic;html=1;rounded=0;entryX=0;entryY=0.5;entryDx=0;entryDy=0;entryPerimeter=0;" parent="1" target="0gMe88-RUzZ61mWNXkSE-24" edge="1">
          <mxGeometry width="50" height="50" relative="1" as="geometry">
            <mxPoint x="276.5" y="189.5" as="sourcePoint" />
            <mxPoint x="326.5" y="189.5" as="targetPoint" />
          </mxGeometry>
        </mxCell>
        <mxCell id="0gMe88-RUzZ61mWNXkSE-30" value="" style="outlineConnect=0;dashed=0;verticalLabelPosition=bottom;verticalAlign=top;align=center;html=1;shape=mxgraph.aws3.lambda_function;fillColor=#F58534;gradientColor=none;" parent="1" vertex="1">
          <mxGeometry x="44.620000000000005" y="183" width="40" height="40" as="geometry" />
        </mxCell>
        <mxCell id="0gMe88-RUzZ61mWNXkSE-31" value="Poll&amp;nbsp;&lt;div&gt;Edgar&lt;/div&gt;" style="text;html=1;align=center;verticalAlign=middle;whiteSpace=wrap;rounded=0;" parent="1" vertex="1">
          <mxGeometry x="34.620000000000005" y="229" width="60" height="30" as="geometry" />
        </mxCell>
        <mxCell id="0gMe88-RUzZ61mWNXkSE-32" value="" style="sketch=0;points=[[0,0,0],[0.25,0,0],[0.5,0,0],[0.75,0,0],[1,0,0],[0,1,0],[0.25,1,0],[0.5,1,0],[0.75,1,0],[1,1,0],[0,0.25,0],[0,0.5,0],[0,0.75,0],[1,0.25,0],[1,0.5,0],[1,0.75,0]];outlineConnect=0;fontColor=#232F3E;fillColor=#E7157B;strokeColor=#ffffff;dashed=0;verticalLabelPosition=bottom;verticalAlign=top;align=center;html=1;fontSize=12;fontStyle=0;aspect=fixed;shape=mxgraph.aws4.resourceIcon;resIcon=mxgraph.aws4.eventbridge;" parent="1" vertex="1">
          <mxGeometry x="116.62" y="185" width="40" height="40" as="geometry" />
        </mxCell>
        <mxCell id="0gMe88-RUzZ61mWNXkSE-33" value="Daily Event" style="text;html=1;align=center;verticalAlign=middle;whiteSpace=wrap;rounded=0;" parent="1" vertex="1">
          <mxGeometry x="106.62" y="229" width="60" height="30" as="geometry" />
        </mxCell>
        <mxCell id="0gMe88-RUzZ61mWNXkSE-34" value="" style="endArrow=classic;startArrow=classic;html=1;rounded=0;entryX=0;entryY=0.5;entryDx=0;entryDy=0;entryPerimeter=0;" parent="1" target="0gMe88-RUzZ61mWNXkSE-32" edge="1">
          <mxGeometry width="50" height="50" relative="1" as="geometry">
            <mxPoint x="84.23" y="205" as="sourcePoint" />
            <mxPoint x="134.23" y="155" as="targetPoint" />
          </mxGeometry>
        </mxCell>
        <mxCell id="0gMe88-RUzZ61mWNXkSE-35" value="" style="endArrow=classic;html=1;rounded=0;entryX=0.5;entryY=1;entryDx=0;entryDy=0;exitX=0.5;exitY=0;exitDx=0;exitDy=0;exitPerimeter=0;" parent="1" source="0gMe88-RUzZ61mWNXkSE-30" target="0gMe88-RUzZ61mWNXkSE-4" edge="1">
          <mxGeometry width="50" height="50" relative="1" as="geometry">
            <mxPoint x="66.62" y="183" as="sourcePoint" />
            <mxPoint x="116.62" y="133" as="targetPoint" />
          </mxGeometry>
        </mxCell>
        <mxCell id="N1ExESrbAP3tb2hnobks-1" value="Stack 1" style="text;html=1;align=center;verticalAlign=middle;whiteSpace=wrap;rounded=0;" vertex="1" parent="1">
          <mxGeometry x="26" y="30" width="144" height="30" as="geometry" />
        </mxCell>
      </root>
    </mxGraphModel>
  </diagram>
</mxfile>
